<svg width="512" height="512" viewBox="0 0 1024 1024" version="1.1" xmlns="http://www.w3.org/2000/svg">
  <path fill="#39158e" d="m233 189c55 1.41 36.8 299 27 437-21.4 140-117 206-177 102-33.2-56.4-87.5-395 6.64-559"/>
  <path fill="#39158e" d="m426 127c5.02 133-4.98 550 8.95 710-10.6 52.4-254 61-254 61-8.29-14.1 87.5-80.5 97.9-141 29.3-169 21.6-484 53.5-644"/>
  <path fill="#381589" d="m578 739c114 9.34 179-70.1 183-207 4.14-110-33.5-224-197-245 102 10 321-89.6 381 205-32.3 222-200 321-368 247z"/>
  <path fill="#a888ec" d="m4.89 190 85.5-21-.769 413c0 64.5 3.93 147 67 148 62.6-1.55 63.5-100 65.5-144l.592-444 112-28.1-5.09 519c-5.12 155-46.1 270-155 267-157-7.59-164-212-167-283z"/>
  <path fill="#a888ec" d="m544 66.6 2.96 879-127-19.6-.526-831"/>
  <path fill="#7234f4" d="m539 66.6 7.63 879s234-30.1 242-32.4c23.4-2.92 245-85.7 229-417-14.9-308-217-371-245-379-64.4-20.8-235-51.1-235-51.1zm165 216 59.3 7.92s130 22.3 131 221c0 224-146 230-146 230l-44.7.649z"/>
</svg>
